<?xml version="1.0" encoding="utf-8"?>
<!-- Generator: Adobe Illustrator 24.0.1, SVG Export Plug-In . SVG Version: 6.00 Build 0)  -->
<svg version="1.1" xmlns="http://www.w3.org/2000/svg" xmlns:xlink="http://www.w3.org/1999/xlink" x="0px" y="0px"
	 viewBox="0 0 193.2 52" style="enable-background:new 0 0 193.2 52;" xml:space="preserve">
<style type="text/css">
	.st0{fill:none;stroke:#FFFFFF;stroke-width:9;stroke-miterlimit:10;}
	.st1{fill:#FAFAFA;}
	.st2{fill:url(#SVGID_1_);}
	.st3{fill:#3C3C3B;}
	.st4{fill:url(#SVGID_2_);}
</style>
<g id="Camada_3">
</g>
<g id="Camada_2">
</g>
<g id="Camada_1">
	
		<linearGradient id="SVGID_1_" gradientUnits="userSpaceOnUse" x1="6.5105" y1="92.4797" x2="52.1755" y2="92.4797" gradientTransform="matrix(0 1 -1 0 117.5329 -3.4508)">
		<stop  offset="0" style="stop-color:#F49F77"/>
		<stop  offset="0.4843" style="stop-color:#ED6CA5"/>
		<stop  offset="1" style="stop-color:#714896"/>
	</linearGradient>
	<path class="st2" d="M39.1,48.2l0.6-0.3c2-0.9,3.3-2.8,3.3-4.8c0-0.6,0-1.3,0.1-2c0-0.7,0.1-1.4,0.1-2.1c0-0.6,0-1.2-0.1-1.8
		c-0.3-2.4-1.8-5.3-4.4-6.7l0,0c-0.6-0.3-2.5-1.3-8.6-4.4c8.6-4.5,8.6-4.5,8.6-4.5c2.4-1.3,4.3-4.4,4.3-7.1V8.7c0-2.2-1.4-4.1-3.6-5
		l-0.6-0.2c-1.7-0.6-3.6-0.5-5.1,0.3l-16.5,8.7c-1.8,1-2.9,2.7-2.9,4.7v0.9l-0.6-0.6c-1.4-0.7-3-0.7-4.4,0C7.8,18.3,7,19.6,7,21.1
		v12.1c0,1.5,0.9,2.9,2.4,3.7l16.8,7.6l7.5,3.7C35.4,48.9,37.4,48.9,39.1,48.2z M17.2,17.2c0-0.9,0.5-1.8,1.4-2.3l16.5-8.7
		c0.8-0.4,1.7-0.5,2.5-0.2l0.6,0.2C39.3,6.6,40,7.6,40,8.7v5.8c0,1.8-1.3,4-2.8,4.8c0,0-5.1,2.7-10.2,5.4c-0.7-0.4-1.5-0.8-2.3-1.2
		l-6.2-3.2c-0.8-0.5-1.3-1.3-1.3-2.2V17.2z M35.2,45.7L10.8,34.4c-0.5-0.2-0.8-0.7-0.8-1.2V21.1c0-0.7,0.5-1.1,0.7-1.2
		c0.2-0.1,0.8-0.3,1.5,0l4.7,2.7c0.1,0.1,0.2,0.1,0.3,0.2c0,0,0.1,0,0.3,0.1l3.4,1.7c0.4,0.2,0.7,0.4,1.1,0.6
		c0.4,0.2,0.8,0.4,1.2,0.6l0.7,0.3c0,0,0,0,0,0l3,1.6l2.1,1.1l7.6,3.8c0.3,0.1,0.5,0.2,0.5,0.2c1.6,0.8,2.6,2.9,2.9,4.6
		c0.1,1.1,0.1,2.2,0,3.4c0,0.7-0.1,1.4-0.1,2.1c0,1-0.6,1.9-1.6,2.4l-0.6,0.3C36.9,46.1,36,46.1,35.2,45.7z"/>
	<g>
		<path class="st3" d="M59.7,40.4c-6,0-10.3-4.6-10.3-10.2v-0.1c0-5.6,4.3-10.3,10.4-10.3c3.7,0,6.1,1.3,7.9,3.3l-3.4,3.7
			c-1.3-1.3-2.5-2.2-4.5-2.2C57,24.6,55,27.1,55,30v0.1c0,3,2,5.5,5,5.5c1.9,0,3.2-0.8,4.6-2.1l3.3,3.3
			C65.9,38.9,63.7,40.4,59.7,40.4z"/>
		<path class="st3" d="M81.6,39.9v-2.1c-1.4,1.5-3.3,2.5-6,2.5c-3.7,0-6.8-2.1-6.8-6v-0.1c0-4.3,3.3-6.3,8-6.3c2,0,3.4,0.3,4.8,0.8
			v-0.3c0-2.3-1.4-3.6-4.3-3.6c-2.1,0-3.7,0.4-5.5,1.1l-1.4-4.3c2.2-1,4.3-1.6,7.7-1.6c6.1,0,8.8,3.2,8.8,8.5v11.5H81.6z M81.8,32
			c-1-0.4-2.2-0.7-3.6-0.7c-2.4,0-3.9,1-3.9,2.7V34c0,1.5,1.3,2.4,3.1,2.4c2.6,0,4.4-1.4,4.4-3.5V32z"/>
		<path class="st3" d="M102.1,25.7c-3.7,0-6,2.2-6,7v7.3h-5.6V20.2h5.6v4c1.1-2.7,3-4.5,6.3-4.3v5.9H102.1z"/>
		<path class="st3" d="M118,39.9v-2.8c-1.4,1.8-3.3,3.2-6.2,3.2c-4.6,0-9-3.6-9-10.2V30c0-6.6,4.3-10.2,9-10.2c3,0,4.8,1.4,6.2,2.9
			V13h5.6v26.9H118z M118.1,30c0-3.3-2.2-5.5-4.8-5.5c-2.6,0-4.8,2.1-4.8,5.5v0.1c0,3.3,2.2,5.5,4.8,5.5
			C115.9,35.6,118.1,33.4,118.1,30L118.1,30z"/>
		<path class="st3" d="M138.1,40.4c-1.5,4-3.1,5.5-6.5,5.5c-2,0-3.6-0.5-5-1.4l1.9-4.1c0.7,0.4,1.7,0.8,2.4,0.8c1,0,1.5-0.3,2-1.3
			L125,20.2h6l4.5,13.5l4.3-13.5h5.8L138.1,40.4z"/>
		<path class="st3" d="M155.8,40.4c-6.1,0-10.7-4.5-10.7-10.2v-0.1c0-5.7,4.6-10.3,10.8-10.3c6.1,0,10.7,4.5,10.7,10.2v0.1
			C166.6,35.8,162,40.4,155.8,40.4z M161,30.1c0-2.9-2.1-5.5-5.2-5.5c-3.2,0-5.1,2.5-5.1,5.4v0.1c0,2.9,2.1,5.5,5.2,5.5
			C159.1,35.6,161,33.1,161,30.1L161,30.1z"/>
	</g>
	<g>
		<g>
			<path class="st3" d="M168.4,39.9v-1.3h1.3v1.3H168.4z"/>
			<path class="st3" d="M170.5,39.9v-6h1.3v6H170.5z"/>
			<path class="st3" d="M172.7,35v-1.1h1.3V35H172.7z M172.7,39.9v-4.4h1.3v4.4H172.7z"/>
			<path class="st3" d="M177.6,39.9v-2.5c0-0.6-0.3-0.9-0.8-0.9s-0.8,0.3-0.8,0.9v2.5h-1.3v-4.4h1.3v0.6c0.3-0.4,0.7-0.7,1.3-0.7
				c1,0,1.5,0.6,1.5,1.6v2.9H177.6z"/>
			<path class="st3" d="M182.5,39.9l-1.2-1.8l-0.4,0.5v1.4h-1.3v-6h1.3v3.2l1.5-1.6h1.5l-1.7,1.7l1.8,2.7H182.5z"/>
		</g>
	</g>
</g>
</svg>
