<svg width="1103" height="900" viewBox="0 0 1103 900" fill="none" xmlns="http://www.w3.org/2000/svg">
<path opacity="0.3" d="M383 1160.5L238.778 1429.06L747.796 587.611L675.683 295.767L498 587.611L498 914L383 1160.5Z" fill="#1D7BED"/>
<path opacity="0.3" d="M895.354 547.22L936.611 714.19L927.599 729.087L902.857 770.115L892.527 787.245L867.734 828.358L857.455 845.404L832.662 886.517L822.332 903.647L815.113 915.617L804.783 932.747L780.041 973.775L769.711 990.906L744.918 1032.02L734.639 1049.06L709.846 1090.18L626.923 1227.68L585.674 1060.75L668.597 923.241L693.39 882.128L703.669 865.082L728.462 823.97L738.792 806.839L763.534 765.811L773.864 748.681L781.083 736.711L791.413 719.581L816.206 678.468L826.485 661.422L851.278 620.31L861.608 603.179L886.35 562.151L895.354 547.22Z" fill="#1D7BED"/>
<path d="M1316.76 -92.2742L1373.7 138.149L1361.26 158.746L1327.07 215.401L1312.78 239.05L1278.49 295.764L1264.26 319.328L1229.98 376.076L1215.7 399.725L1205.71 416.254L1191.43 439.902L1157.2 496.566L1142.92 520.214L1108.64 576.962L1094.41 600.526L1060.16 657.266L1047.77 677.779L990.836 447.355L1003.23 426.843L1037.47 370.103L1051.7 346.539L1085.98 289.791L1100.27 266.142L1134.5 209.513L1148.78 185.83L1158.76 169.302L1173.05 145.653L1207.32 88.9047L1221.56 65.3409L1255.84 8.62667L1270.13 -15.0219L1304.32 -71.677L1316.76 -92.2742Z" fill="#0D63CB"/>
<path d="M1183.93 315.704L1223.37 475.306L1214.77 489.564L1191.11 528.783L1181.23 545.156L1157.52 584.459L1147.67 600.789L1123.98 640.051L1114.11 656.457L1107.19 667.889L1097.31 684.262L1073.66 723.514L1063.75 739.896L1040.06 779.157L1030.21 795.487L1006.53 834.782L997.95 848.963L958.522 689.395L967.098 675.18L990.775 635.885L1000.64 619.589L1024.31 580.294L1034.22 563.912L1057.88 524.694L1067.75 508.287L1074.68 496.855L1084.55 480.482L1108.23 441.187L1118.08 424.857L1141.8 385.587L1151.67 369.181L1175.33 329.962L1183.93 315.704Z" fill="#0D63CB"/>
<path opacity="0.3" d="M929.788 140.859L977.002 331.936L966.7 349.01L938.342 395.96L926.54 415.567L898.13 462.602L886.354 482.167L857.979 529.194L846.143 548.809L837.86 562.536L826.016 582.118L797.7 629.094L785.864 648.709L757.489 695.736L745.67 715.275L717.303 762.336L707.052 779.325L659.838 588.247L670.089 571.258L698.456 524.198L710.274 504.659L738.65 457.632L750.486 438.016L778.802 391.04L790.637 371.425L798.928 357.732L810.764 338.116L839.14 291.09L850.916 271.525L879.325 224.49L891.127 204.883L919.486 157.932L929.788 140.859Z" fill="#1D7BED"/>
<g opacity="0.2">
<path opacity="0.2" d="M1096.95 530.268C1098.6 529.86 1099.61 528.191 1099.2 526.54C1098.79 524.889 1097.12 523.882 1095.47 524.289C1093.82 524.697 1092.81 526.366 1093.22 528.017C1093.63 529.668 1095.3 530.676 1096.95 530.268Z" fill="white" fill-opacity="0.4"/>
<path opacity="0.2" d="M1085.08 549.923C1086.71 549.52 1087.74 547.859 1087.33 546.195C1086.93 544.565 1085.27 543.533 1083.61 543.944C1081.98 544.347 1080.94 546.008 1081.36 547.672C1081.79 549.294 1083.45 550.326 1085.08 549.923Z" fill="white" fill-opacity="0.4"/>
<path opacity="0.2" d="M1100.84 546.029C1102.49 545.621 1103.5 543.952 1103.09 542.301C1102.68 540.65 1101.02 539.642 1099.37 540.05C1097.71 540.458 1096.71 542.127 1097.11 543.778C1097.52 545.429 1099.19 546.436 1100.84 546.029Z" fill="white" fill-opacity="0.4"/>
<path opacity="0.2" d="M1073.22 569.578C1074.85 569.175 1075.88 567.515 1075.47 565.85C1075.06 564.22 1073.4 563.188 1071.74 563.6C1070.11 564.003 1069.08 565.663 1069.49 567.327C1069.9 568.992 1071.59 569.981 1073.22 569.578Z" fill="white" fill-opacity="0.4"/>
<path opacity="0.2" d="M1088.98 565.683C1090.61 565.281 1091.64 563.62 1091.23 561.956C1090.83 560.325 1089.16 559.294 1087.5 559.705C1085.87 560.108 1084.84 561.768 1085.25 563.433C1085.7 565.089 1087.35 566.086 1088.98 565.683Z" fill="white" fill-opacity="0.4"/>
<path opacity="0.2" d="M1104.74 561.789C1106.37 561.386 1107.4 559.726 1106.99 558.061C1106.58 556.431 1104.92 555.4 1103.26 555.811C1101.63 556.214 1100.6 557.874 1101.01 559.539C1101.45 561.195 1103.11 562.192 1104.74 561.789Z" fill="white" fill-opacity="0.4"/>
<path opacity="0.2" d="M1061.35 589.233C1062.98 588.83 1064.01 587.17 1063.6 585.506C1063.2 583.875 1061.54 582.844 1059.87 583.255C1058.24 583.658 1057.21 585.318 1057.62 586.983C1058.03 588.647 1059.69 589.645 1061.35 589.233Z" fill="white" fill-opacity="0.4"/>
<path opacity="0.2" d="M1077.11 585.339C1078.76 584.931 1079.77 583.262 1079.36 581.611C1078.95 579.96 1077.28 578.953 1075.63 579.36C1073.98 579.768 1072.97 581.437 1073.38 583.088C1073.79 584.739 1075.46 585.747 1077.11 585.339Z" fill="white" fill-opacity="0.4"/>
<path opacity="0.2" d="M1092.87 581.444C1094.5 581.041 1095.53 579.381 1095.12 577.716C1094.72 576.086 1093.06 575.055 1091.39 575.466C1089.76 575.869 1088.73 577.529 1089.14 579.194C1089.59 580.85 1091.24 581.847 1092.87 581.444Z" fill="white" fill-opacity="0.4"/>
<path opacity="0.2" d="M1049.48 608.888C1051.11 608.485 1052.15 606.825 1051.73 605.161C1051.33 603.53 1049.67 602.499 1048.01 602.91C1046.38 603.313 1045.34 604.973 1045.76 606.638C1046.17 608.302 1047.82 609.3 1049.48 608.888Z" fill="white" fill-opacity="0.4"/>
<path opacity="0.2" d="M1065.24 604.994C1066.87 604.591 1067.91 602.931 1067.49 601.266C1067.09 599.636 1065.43 598.605 1063.77 599.016C1062.14 599.419 1061.1 601.079 1061.52 602.744C1061.93 604.408 1063.58 605.405 1065.24 604.994Z" fill="white" fill-opacity="0.4"/>
<path opacity="0.2" d="M1081 601.1C1082.64 600.697 1083.67 599.036 1083.26 597.372C1082.85 595.741 1081.19 594.71 1079.53 595.121C1077.9 595.524 1076.87 597.185 1077.28 598.849C1077.69 600.513 1079.37 601.502 1081 601.1Z" fill="white" fill-opacity="0.4"/>
<path opacity="0.2" d="M1096.77 597.205C1098.4 596.802 1099.43 595.142 1099.02 593.477C1098.61 591.847 1096.95 590.816 1095.29 591.227C1093.66 591.63 1092.63 593.29 1093.04 594.955C1093.48 596.611 1095.14 597.608 1096.77 597.205Z" fill="white" fill-opacity="0.4"/>
<path opacity="0.2" d="M1037.59 628.586C1039.22 628.183 1040.25 626.523 1039.84 624.858C1039.44 623.228 1037.78 622.197 1036.11 622.608C1034.48 623.011 1033.45 624.671 1033.86 626.336C1034.3 627.958 1035.96 628.989 1037.59 628.586Z" fill="white" fill-opacity="0.4"/>
<path opacity="0.2" d="M1053.39 624.683C1055.02 624.28 1056.05 622.62 1055.64 620.955C1055.23 619.325 1053.57 618.294 1051.91 618.705C1050.28 619.108 1049.25 620.768 1049.66 622.433C1050.06 624.063 1051.72 625.094 1053.39 624.683Z" fill="white" fill-opacity="0.4"/>
<path opacity="0.2" d="M1069.15 620.789C1070.78 620.386 1071.81 618.726 1071.4 617.061C1070.99 615.431 1069.33 614.399 1067.67 614.811C1066.04 615.214 1065.01 616.874 1065.42 618.538C1065.82 620.169 1067.48 621.2 1069.15 620.789Z" fill="white" fill-opacity="0.4"/>
<path opacity="0.2" d="M1084.91 616.894C1086.54 616.491 1087.57 614.831 1087.16 613.167C1086.76 611.536 1085.09 610.505 1083.43 610.916C1081.8 611.319 1080.77 612.979 1081.18 614.644C1081.58 616.274 1083.28 617.297 1084.91 616.894Z" fill="white" fill-opacity="0.4"/>
<path opacity="0.2" d="M1100.67 613C1102.3 612.597 1103.33 610.937 1102.92 609.272C1102.52 607.642 1100.86 606.61 1099.19 607.022C1097.56 607.424 1096.53 609.085 1096.94 610.749C1097.38 612.371 1099.04 613.403 1100.67 613Z" fill="white" fill-opacity="0.4"/>
<path opacity="0.2" d="M1025.73 648.241C1027.36 647.838 1028.39 646.178 1027.98 644.513C1027.57 642.883 1025.91 641.852 1024.25 642.263C1022.62 642.666 1021.59 644.326 1022 645.991C1022.44 647.647 1024.1 648.644 1025.73 648.241Z" fill="white" fill-opacity="0.4"/>
<path opacity="0.2" d="M1041.49 644.347C1043.14 643.939 1044.14 642.27 1043.74 640.619C1043.33 638.968 1041.66 637.961 1040.01 638.369C1038.36 638.777 1037.35 640.446 1037.76 642.097C1038.17 643.747 1039.83 644.755 1041.49 644.347Z" fill="white" fill-opacity="0.4"/>
<path opacity="0.2" d="M1057.28 640.444C1058.91 640.041 1059.94 638.381 1059.53 636.716C1059.13 635.086 1057.47 634.054 1055.8 634.466C1054.17 634.869 1053.14 636.529 1053.55 638.193C1053.96 639.858 1055.62 640.855 1057.28 640.444Z" fill="white" fill-opacity="0.4"/>
<path opacity="0.2" d="M1073.04 636.55C1074.67 636.147 1075.7 634.486 1075.29 632.822C1074.89 631.192 1073.23 630.16 1071.56 630.572C1069.93 630.974 1068.9 632.635 1069.31 634.299C1069.72 635.964 1071.38 636.961 1073.04 636.55Z" fill="white" fill-opacity="0.4"/>
<path opacity="0.2" d="M1088.8 632.655C1090.45 632.247 1091.46 630.578 1091.05 628.928C1090.64 627.277 1088.98 626.269 1087.33 626.677C1085.67 627.085 1084.67 628.754 1085.07 630.405C1085.48 632.056 1087.15 633.063 1088.8 632.655Z" fill="white" fill-opacity="0.4"/>
<path opacity="0.2" d="M1104.56 628.761C1106.19 628.358 1107.23 626.697 1106.81 625.033C1106.41 623.403 1104.75 622.371 1103.09 622.783C1101.46 623.185 1100.42 624.846 1100.84 626.51C1101.28 628.166 1102.93 629.164 1104.56 628.761Z" fill="white" fill-opacity="0.4"/>
<path opacity="0.2" d="M1013.86 667.896C1015.49 667.493 1016.52 665.833 1016.11 664.169C1015.71 662.538 1014.05 661.507 1012.38 661.918C1010.75 662.321 1009.72 663.981 1010.13 665.646C1010.54 667.31 1012.19 668.308 1013.86 667.896Z" fill="white" fill-opacity="0.4"/>
<path opacity="0.2" d="M1029.62 664.002C1031.25 663.599 1032.28 661.938 1031.87 660.274C1031.47 658.644 1029.81 657.612 1028.14 658.024C1026.51 658.426 1025.48 660.087 1025.89 661.751C1026.34 663.407 1027.99 664.405 1029.62 664.002Z" fill="white" fill-opacity="0.4"/>
<path opacity="0.2" d="M1045.38 660.108C1047.01 659.705 1048.04 658.044 1047.63 656.38C1047.23 654.75 1045.57 653.718 1043.9 654.129C1042.27 654.532 1041.24 656.193 1041.65 657.857C1042.1 659.513 1043.75 660.511 1045.38 660.108Z" fill="white" fill-opacity="0.4"/>
<path opacity="0.2" d="M1061.18 656.205C1062.81 655.802 1063.84 654.141 1063.43 652.477C1063.02 650.846 1061.36 649.815 1059.7 650.226C1058.07 650.629 1057.04 652.29 1057.45 653.954C1057.86 655.618 1059.51 656.616 1061.18 656.205Z" fill="white" fill-opacity="0.4"/>
<path opacity="0.2" d="M1076.94 652.31C1078.57 651.908 1079.6 650.247 1079.19 648.583C1078.78 646.952 1077.12 645.921 1075.46 646.332C1073.83 646.735 1072.8 648.395 1073.21 650.06C1073.62 651.724 1075.27 652.722 1076.94 652.31Z" fill="white" fill-opacity="0.4"/>
<path opacity="0.2" d="M1092.7 648.416C1094.33 648.013 1095.36 646.353 1094.95 644.688C1094.54 643.058 1092.88 642.026 1091.22 642.438C1089.59 642.841 1088.56 644.501 1088.97 646.165C1089.38 647.83 1091.07 648.819 1092.7 648.416Z" fill="white" fill-opacity="0.4"/>
<path opacity="0.2" d="M1001.99 687.552C1003.62 687.149 1004.65 685.488 1004.24 683.824C1003.83 682.16 1002.18 681.162 1000.51 681.574C998.884 681.976 997.853 683.637 998.264 685.301C998.675 686.966 1000.33 687.963 1001.99 687.552Z" fill="white" fill-opacity="0.4"/>
<path opacity="0.2" d="M1017.76 683.691C1019.41 683.283 1020.42 681.614 1020.01 679.964C1019.6 678.313 1017.94 677.305 1016.28 677.713C1014.63 678.121 1013.63 679.79 1014.03 681.441C1014.44 683.092 1016.11 684.099 1017.76 683.691Z" fill="white" fill-opacity="0.4"/>
<path opacity="0.2" d="M1033.51 679.763C1035.15 679.36 1036.18 677.699 1035.77 676.035C1035.35 674.37 1033.7 673.373 1032.04 673.784C1030.41 674.187 1029.38 675.848 1029.79 677.512C1030.2 679.176 1031.88 680.165 1033.51 679.763Z" fill="white" fill-opacity="0.4"/>
<path opacity="0.2" d="M1049.28 675.902C1050.93 675.495 1051.94 673.826 1051.53 672.175C1051.13 670.524 1049.46 669.516 1047.81 669.924C1046.15 670.332 1045.15 672.001 1045.56 673.652C1045.96 675.303 1047.63 676.31 1049.28 675.902Z" fill="white" fill-opacity="0.4"/>
<path opacity="0.2" d="M1065.07 671.965C1066.7 671.563 1067.73 669.902 1067.32 668.238C1066.91 666.573 1065.26 665.576 1063.59 665.987C1061.96 666.39 1060.93 668.05 1061.34 669.715C1061.75 671.379 1063.41 672.377 1065.07 671.965Z" fill="white" fill-opacity="0.4"/>
<path opacity="0.2" d="M1080.83 668.071C1082.46 667.668 1083.49 666.008 1083.08 664.343C1082.67 662.679 1081.02 661.682 1079.35 662.093C1077.72 662.496 1076.69 664.156 1077.1 665.821C1077.51 667.485 1079.17 668.482 1080.83 668.071Z" fill="white" fill-opacity="0.4"/>
<path opacity="0.2" d="M1096.6 664.211C1098.25 663.803 1099.26 662.134 1098.85 660.483C1098.44 658.832 1096.77 657.825 1095.12 658.232C1093.47 658.64 1092.46 660.309 1092.87 661.96C1093.28 663.611 1094.95 664.619 1096.6 664.211Z" fill="white" fill-opacity="0.4"/>
<path opacity="0.2" d="M990.092 707.215C991.722 706.812 992.754 705.152 992.342 703.488C991.939 701.857 990.279 700.826 988.615 701.237C986.984 701.64 985.953 703.3 986.364 704.965C986.809 706.621 988.461 707.618 990.092 707.215Z" fill="white" fill-opacity="0.4"/>
<path opacity="0.2" d="M1005.89 703.313C1007.52 702.91 1008.55 701.249 1008.14 699.585C1007.73 697.954 1006.07 696.923 1004.41 697.334C1002.78 697.737 1001.75 699.398 1002.16 701.062C1002.57 702.726 1004.22 703.724 1005.89 703.313Z" fill="white" fill-opacity="0.4"/>
<path opacity="0.2" d="M1021.65 699.418C1023.28 699.015 1024.31 697.355 1023.9 695.69C1023.5 694.06 1021.83 693.029 1020.17 693.44C1018.54 693.843 1017.51 695.503 1017.92 697.168C1018.33 698.832 1019.98 699.829 1021.65 699.418Z" fill="white" fill-opacity="0.4"/>
<path opacity="0.2" d="M1037.41 695.524C1039.04 695.121 1040.07 693.46 1039.66 691.796C1039.26 690.165 1037.6 689.134 1035.93 689.545C1034.3 689.948 1033.27 691.609 1033.68 693.273C1034.13 694.929 1035.78 695.926 1037.41 695.524Z" fill="white" fill-opacity="0.4"/>
<path opacity="0.2" d="M1053.17 691.629C1054.8 691.226 1055.83 689.566 1055.42 687.902C1055.02 686.271 1053.36 685.24 1051.69 685.651C1050.06 686.054 1049.03 687.714 1049.44 689.379C1049.89 691.035 1051.54 692.032 1053.17 691.629Z" fill="white" fill-opacity="0.4"/>
<path opacity="0.2" d="M1068.96 687.726C1070.6 687.323 1071.63 685.663 1071.22 683.998C1070.81 682.368 1069.15 681.337 1067.49 681.748C1065.86 682.151 1064.83 683.811 1065.24 685.476C1065.65 687.14 1067.3 688.137 1068.96 687.726Z" fill="white" fill-opacity="0.4"/>
<path opacity="0.2" d="M1084.72 683.832C1086.35 683.429 1087.39 681.769 1086.97 680.104C1086.57 678.474 1084.91 677.443 1083.25 677.854C1081.62 678.257 1080.59 679.917 1081 681.582C1081.41 683.246 1083.06 684.243 1084.72 683.832Z" fill="white" fill-opacity="0.4"/>
<path opacity="0.2" d="M1100.49 679.938C1102.12 679.535 1103.15 677.874 1102.74 676.21C1102.33 674.579 1100.67 673.548 1099.01 673.959C1097.38 674.362 1096.35 676.023 1096.76 677.687C1097.17 679.351 1098.85 680.34 1100.49 679.938Z" fill="white" fill-opacity="0.4"/>
</g>
<path d="M1085.66 204.074C1084.64 204.326 1083.99 205.351 1084.25 206.404C1084.5 207.423 1085.53 208.071 1086.58 207.811C1087.6 207.559 1088.25 206.534 1087.99 205.481C1087.73 204.428 1086.71 203.814 1085.66 204.074Z" fill="white" fill-opacity="0.4"/>
<path d="M1094 195.526C1095.03 195.272 1095.66 194.228 1095.4 193.197C1095.15 192.165 1094.11 191.535 1093.07 191.79C1092.04 192.045 1091.41 193.088 1091.67 194.12C1091.92 195.152 1092.97 195.781 1094 195.526Z" fill="white" fill-opacity="0.4"/>
<path d="M1083.22 194.224C1082.2 194.476 1081.56 195.501 1081.82 196.554C1082.07 197.573 1083.09 198.221 1084.15 197.96C1085.17 197.709 1085.81 196.684 1085.55 195.631C1085.3 194.612 1084.28 193.964 1083.22 194.224Z" fill="white" fill-opacity="0.4"/>
<path d="M1100.46 179.548C1099.45 179.8 1098.8 180.825 1099.06 181.878C1099.31 182.897 1100.34 183.544 1101.39 183.284C1102.41 183.032 1103.05 182.007 1102.79 180.954C1102.53 179.901 1101.48 179.296 1100.46 179.548Z" fill="white" fill-opacity="0.4"/>
<path d="M1090.65 181.973C1089.63 182.225 1088.98 183.25 1089.24 184.303C1089.49 185.322 1090.52 185.97 1091.57 185.71C1092.62 185.45 1093.24 184.433 1092.98 183.38C1092.68 182.335 1091.67 181.722 1090.65 181.973Z" fill="white" fill-opacity="0.4"/>
<path d="M1080.8 184.407C1079.78 184.659 1079.13 185.684 1079.39 186.737C1079.64 187.756 1080.67 188.404 1081.72 188.144C1082.74 187.892 1083.39 186.867 1083.13 185.814C1082.87 184.761 1081.85 184.147 1080.8 184.407Z" fill="white" fill-opacity="0.4"/>
<path d="M1098.04 169.731C1097.02 169.983 1096.37 171.008 1096.63 172.061C1096.88 173.08 1097.91 173.728 1098.96 173.468C1099.98 173.216 1100.63 172.191 1100.37 171.138C1100.11 170.085 1099.06 169.479 1098.04 169.731Z" fill="white" fill-opacity="0.4"/>
<path d="M1089.14 175.859C1090.17 175.604 1090.8 174.561 1090.54 173.53C1090.29 172.498 1089.25 171.868 1088.21 172.123C1087.18 172.378 1086.55 173.421 1086.81 174.453C1087.06 175.485 1088.11 176.114 1089.14 175.859Z" fill="white" fill-opacity="0.4"/>
<path d="M1078.37 174.591C1077.35 174.843 1076.7 175.868 1076.97 176.921C1077.22 177.94 1078.24 178.587 1079.29 178.327C1080.31 178.075 1080.96 177.05 1080.7 175.997C1080.44 174.944 1079.42 174.331 1078.37 174.591Z" fill="white" fill-opacity="0.4"/>
<path d="M1095.6 159.881C1094.59 160.132 1093.94 161.158 1094.2 162.21C1094.45 163.23 1095.48 163.877 1096.53 163.617C1097.55 163.365 1098.2 162.34 1097.93 161.287C1097.68 160.268 1096.62 159.629 1095.6 159.881Z" fill="white" fill-opacity="0.4"/>
<path d="M1085.79 162.306C1084.77 162.558 1084.12 163.583 1084.38 164.636C1084.63 165.655 1085.66 166.303 1086.71 166.043C1087.76 165.783 1088.38 164.766 1088.12 163.713C1087.83 162.702 1086.81 162.055 1085.79 162.306Z" fill="white" fill-opacity="0.4"/>
<path d="M1075.94 164.74C1074.92 164.992 1074.27 166.017 1074.53 167.07C1074.78 168.089 1075.81 168.737 1076.86 168.477C1077.88 168.225 1078.53 167.2 1078.27 166.147C1078.02 165.128 1076.99 164.48 1075.94 164.74Z" fill="white" fill-opacity="0.4"/>
<path d="M1103.03 147.63C1102.01 147.882 1101.36 148.907 1101.62 149.96C1101.88 151.013 1102.9 151.627 1103.95 151.367C1104.97 151.115 1105.62 150.09 1105.36 149.037C1105.1 147.984 1104.05 147.379 1103.03 147.63Z" fill="white" fill-opacity="0.4"/>
<path d="M1093.18 150.064C1092.16 150.316 1091.51 151.341 1091.77 152.394C1092.03 153.447 1093.05 154.061 1094.1 153.801C1095.12 153.549 1095.77 152.524 1095.51 151.471C1095.25 150.418 1094.2 149.813 1093.18 150.064Z" fill="white" fill-opacity="0.4"/>
<path d="M1083.36 152.49C1082.34 152.742 1081.7 153.767 1081.96 154.82C1082.22 155.873 1083.23 156.487 1084.29 156.226C1085.34 155.966 1085.95 154.949 1085.69 153.897C1085.43 152.844 1084.38 152.238 1083.36 152.49Z" fill="white" fill-opacity="0.4"/>
<path d="M1073.51 154.924C1072.49 155.176 1071.85 156.201 1072.11 157.254C1072.37 158.307 1073.38 158.921 1074.44 158.66C1075.45 158.409 1076.1 157.383 1075.84 156.33C1075.58 155.278 1074.57 154.664 1073.51 154.924Z" fill="white" fill-opacity="0.4"/>
<path d="M1100.6 137.78C1099.58 138.032 1098.93 139.057 1099.19 140.11C1099.44 141.129 1100.47 141.776 1101.52 141.516C1102.54 141.264 1103.19 140.239 1102.93 139.186C1102.64 138.176 1101.61 137.528 1100.6 137.78Z" fill="white" fill-opacity="0.4"/>
<path d="M1090.75 140.214C1089.73 140.465 1089.08 141.491 1089.34 142.543C1089.59 143.563 1090.62 144.21 1091.67 143.95C1092.69 143.698 1093.34 142.673 1093.07 141.62C1092.82 140.601 1091.76 139.962 1090.75 140.214Z" fill="white" fill-opacity="0.4"/>
<path d="M1080.93 142.639C1079.91 142.891 1079.26 143.916 1079.52 144.969C1079.77 145.988 1080.8 146.636 1081.85 146.376C1082.9 146.116 1083.52 145.099 1083.26 144.046C1082.97 143.035 1081.95 142.388 1080.93 142.639Z" fill="white" fill-opacity="0.4"/>
<path d="M1071.08 145.073C1070.06 145.325 1069.41 146.35 1069.67 147.403C1069.92 148.422 1070.95 149.07 1072 148.81C1073.02 148.558 1073.67 147.533 1073.41 146.48C1073.16 145.461 1072.13 144.813 1071.08 145.073Z" fill="white" fill-opacity="0.4"/>
<path d="M1098.17 127.963C1097.15 128.215 1096.5 129.24 1096.76 130.293C1097.02 131.312 1098.04 131.96 1099.09 131.7C1100.11 131.448 1100.76 130.423 1100.5 129.37C1100.21 128.325 1099.19 127.711 1098.17 127.963Z" fill="white" fill-opacity="0.4"/>
<path d="M1088.32 130.397C1087.3 130.649 1086.65 131.674 1086.91 132.727C1087.16 133.746 1088.19 134.394 1089.24 134.133C1090.26 133.882 1090.91 132.857 1090.65 131.804C1090.39 130.751 1089.34 130.145 1088.32 130.397Z" fill="white" fill-opacity="0.4"/>
<path d="M1078.5 132.823C1077.48 133.075 1076.84 134.1 1077.1 135.153C1077.35 136.172 1078.37 136.819 1079.43 136.559C1080.48 136.299 1081.09 135.282 1080.83 134.229C1080.54 133.185 1079.52 132.571 1078.5 132.823Z" fill="white" fill-opacity="0.4"/>
<path d="M1068.65 135.257C1067.63 135.509 1066.99 136.534 1067.25 137.587C1067.5 138.606 1068.52 139.253 1069.58 138.993C1070.6 138.741 1071.24 137.716 1070.98 136.663C1070.72 135.61 1069.71 134.997 1068.65 135.257Z" fill="white" fill-opacity="0.4"/>
<path d="M1095.74 118.147C1094.73 118.399 1094.08 119.424 1094.34 120.477C1094.59 121.496 1095.61 122.143 1096.67 121.883C1097.69 121.631 1098.33 120.606 1098.07 119.553C1097.78 118.509 1096.76 117.895 1095.74 118.147Z" fill="white" fill-opacity="0.4"/>
<path d="M1085.89 120.581C1084.88 120.832 1084.23 121.858 1084.49 122.911C1084.74 123.93 1085.76 124.577 1086.82 124.317C1087.84 124.065 1088.48 123.04 1088.22 121.987C1087.96 120.934 1086.91 120.329 1085.89 120.581Z" fill="white" fill-opacity="0.4"/>
<path d="M1076.08 123.006C1075.06 123.258 1074.41 124.283 1074.67 125.336C1074.92 126.355 1075.95 127.003 1077 126.743C1078.05 126.483 1078.67 125.466 1078.41 124.413C1078.11 123.368 1077.1 122.755 1076.08 123.006Z" fill="white" fill-opacity="0.4"/>
<path d="M1066.23 125.44C1065.21 125.692 1064.56 126.717 1064.82 127.77C1065.07 128.789 1066.1 129.437 1067.15 129.177C1068.17 128.925 1068.82 127.9 1068.56 126.847C1068.3 125.794 1067.28 125.18 1066.23 125.44Z" fill="white" fill-opacity="0.4"/>
<path d="M1103.13 105.87C1102.11 106.122 1101.46 107.147 1101.72 108.2C1101.98 109.253 1103 109.867 1104.05 109.607C1105.07 109.355 1105.72 108.33 1105.46 107.277C1105.2 106.224 1104.15 105.619 1103.13 105.87Z" fill="white" fill-opacity="0.4"/>
<path d="M1093.31 108.296C1092.29 108.548 1091.64 109.573 1091.9 110.626C1092.16 111.679 1093.18 112.293 1094.23 112.033C1095.25 111.781 1095.9 110.756 1095.64 109.703C1095.38 108.65 1094.33 108.044 1093.31 108.296Z" fill="white" fill-opacity="0.4"/>
<path d="M1083.46 110.73C1082.44 110.982 1081.79 112.007 1082.05 113.06C1082.31 114.113 1083.33 114.727 1084.38 114.467C1085.4 114.215 1086.05 113.19 1085.79 112.137C1085.53 111.084 1084.48 110.478 1083.46 110.73Z" fill="white" fill-opacity="0.4"/>
<path d="M1073.64 113.156C1072.62 113.408 1071.98 114.433 1072.24 115.486C1072.5 116.539 1073.51 117.152 1074.57 116.892C1075.62 116.632 1076.23 115.615 1075.97 114.562C1075.71 113.509 1074.66 112.904 1073.64 113.156Z" fill="white" fill-opacity="0.4"/>
<path d="M1063.79 115.59C1062.77 115.842 1062.13 116.867 1062.39 117.92C1062.65 118.973 1063.66 119.586 1064.72 119.326C1065.74 119.074 1066.38 118.049 1066.12 116.996C1065.86 115.943 1064.85 115.33 1063.79 115.59Z" fill="white" fill-opacity="0.4"/>
<path d="M1100.7 96.0538C1099.68 96.3056 1099.03 97.3307 1099.3 98.3837C1099.55 99.4027 1100.57 100.05 1101.63 99.7902C1102.64 99.5384 1103.29 98.5134 1103.03 97.4604C1102.77 96.4075 1101.72 95.8021 1100.7 96.0538Z" fill="white" fill-opacity="0.4"/>
<path d="M1090.88 98.4796C1089.87 98.7314 1089.22 99.7565 1089.48 100.809C1089.73 101.828 1090.75 102.476 1091.81 102.216C1092.83 101.964 1093.47 100.939 1093.21 99.8862C1092.92 98.8416 1091.9 98.2278 1090.88 98.4796Z" fill="white" fill-opacity="0.4"/>
<path d="M1081.03 100.914C1080.02 101.165 1079.37 102.19 1079.63 103.243C1079.88 104.262 1080.9 104.91 1081.96 104.65C1082.98 104.398 1083.62 103.373 1083.36 102.32C1083.1 101.267 1082.05 100.662 1081.03 100.914Z" fill="white" fill-opacity="0.4"/>
<path d="M1071.22 103.339C1070.2 103.591 1069.55 104.616 1069.81 105.669C1070.06 106.688 1071.09 107.336 1072.14 107.076C1073.19 106.815 1073.81 105.799 1073.55 104.746C1073.25 103.701 1072.24 103.087 1071.22 103.339Z" fill="white" fill-opacity="0.4"/>
<path d="M1061.37 105.773C1060.35 106.025 1059.7 107.05 1059.96 108.103C1060.21 109.122 1061.24 109.77 1062.29 109.51C1063.31 109.258 1063.96 108.233 1063.7 107.18C1063.44 106.127 1062.42 105.513 1061.37 105.773Z" fill="white" fill-opacity="0.4"/>
<path d="M1098.27 86.2035C1097.25 86.4553 1096.6 87.4804 1096.86 88.5333C1097.11 89.5524 1098.14 90.2001 1099.19 89.9399C1100.21 89.6881 1100.86 88.6631 1100.6 87.6101C1100.35 86.5911 1099.29 85.9517 1098.27 86.2035Z" fill="white" fill-opacity="0.4"/>
<path d="M1089.37 92.3656C1090.41 92.1107 1091.04 91.0676 1090.78 90.0358C1090.53 89.004 1089.48 88.3743 1088.45 88.6292C1087.42 88.8842 1086.79 89.9273 1087.04 90.9591C1087.3 91.9908 1088.34 92.6206 1089.37 92.3656Z" fill="white" fill-opacity="0.4"/>
<path d="M1078.6 91.0632C1077.58 91.315 1076.93 92.34 1077.19 93.393C1077.45 94.412 1078.47 95.0598 1079.52 94.7996C1080.54 94.5478 1081.19 93.5227 1080.93 92.4697C1080.68 91.4507 1079.62 90.8114 1078.6 91.0632Z" fill="white" fill-opacity="0.4"/>
<path d="M1069.71 97.2253C1070.74 96.9703 1071.37 95.9272 1071.11 94.8955C1070.86 93.8637 1069.82 93.2339 1068.78 93.4889C1067.75 93.7438 1067.12 94.7869 1067.38 95.8187C1067.63 96.8505 1068.68 97.4802 1069.71 97.2253Z" fill="white" fill-opacity="0.4"/>
<path d="M1058.93 95.9228C1057.91 96.1746 1057.27 97.1996 1057.53 98.2526C1057.78 99.2716 1058.8 99.9194 1059.86 99.6592C1060.88 99.4074 1061.52 98.3823 1061.26 97.3294C1061.01 96.3103 1059.99 95.6626 1058.93 95.9228Z" fill="white" fill-opacity="0.4"/>
<path d="M1095.84 76.3869C1094.82 76.6387 1094.18 77.6638 1094.44 78.7167C1094.69 79.7358 1095.71 80.3835 1096.77 80.1233C1097.78 79.8715 1098.43 78.8465 1098.17 77.7935C1097.92 76.7745 1096.86 76.1351 1095.84 76.3869Z" fill="white" fill-opacity="0.4"/>
<path d="M1086.02 78.8127C1085.01 79.0645 1084.36 80.0895 1084.62 81.1425C1084.87 82.1615 1085.9 82.8092 1086.95 82.5491C1087.97 82.2973 1088.61 81.2722 1088.35 80.2192C1088.07 79.2086 1087.04 78.5609 1086.02 78.8127Z" fill="white" fill-opacity="0.4"/>
<path d="M1076.17 81.2466C1075.16 81.4984 1074.51 82.5234 1074.77 83.5764C1075.02 84.5954 1076.05 85.2431 1077.1 84.983C1078.12 84.7312 1078.76 83.7061 1078.5 82.6531C1078.25 81.6341 1077.19 80.9948 1076.17 81.2466Z" fill="white" fill-opacity="0.4"/>
<path d="M1066.36 83.6723C1065.34 83.9241 1064.69 84.9492 1064.95 86.0021C1065.2 87.0212 1066.23 87.6689 1067.28 87.4087C1068.33 87.1485 1068.95 86.1319 1068.69 85.0789C1068.4 84.0683 1067.38 83.4205 1066.36 83.6723Z" fill="white" fill-opacity="0.4"/>
<path d="M1056.51 86.1063C1055.49 86.3581 1054.84 87.3831 1055.1 88.4361C1055.35 89.4551 1056.38 90.1028 1057.43 89.8427C1058.45 89.5909 1059.1 88.5658 1058.84 87.5128C1058.59 86.4938 1057.56 85.8461 1056.51 86.1063Z" fill="white" fill-opacity="0.4"/>
<path d="M1104.15 67.847C1105.18 67.5921 1105.81 66.549 1105.55 65.5172C1105.3 64.4854 1104.26 63.8557 1103.23 64.1106C1102.19 64.3656 1101.56 65.4087 1101.82 66.4404C1102.07 67.4722 1103.12 68.102 1104.15 67.847Z" fill="white" fill-opacity="0.4"/>
<path d="M1093.42 66.5703C1092.4 66.8221 1091.75 67.8472 1092.01 68.9002C1092.26 69.9192 1093.29 70.5669 1094.34 70.3067C1095.36 70.0549 1096.01 69.0299 1095.75 67.9769C1095.49 66.9239 1094.44 66.3185 1093.42 66.5703Z" fill="white" fill-opacity="0.4"/>
<path d="M1084.51 72.6985C1085.55 72.4435 1086.18 71.4004 1085.92 70.3686C1085.67 69.3369 1084.62 68.7071 1083.59 68.9621C1082.56 69.217 1081.93 70.2601 1082.18 71.2919C1082.44 72.3237 1083.48 72.9534 1084.51 72.6985Z" fill="white" fill-opacity="0.4"/>
<path d="M1073.75 71.43C1072.73 71.6818 1072.08 72.7068 1072.34 73.7598C1072.59 74.7788 1073.62 75.4266 1074.67 75.1664C1075.69 74.9146 1076.34 73.8895 1076.08 72.8366C1075.82 71.7836 1074.77 71.1782 1073.75 71.43Z" fill="white" fill-opacity="0.4"/>
<path d="M1064.85 77.5581C1065.88 77.3032 1066.51 76.2601 1066.25 75.2283C1066 74.1965 1064.96 73.5668 1063.92 73.8217C1062.89 74.0766 1062.26 75.1198 1062.52 76.1515C1062.77 77.1833 1063.82 77.8131 1064.85 77.5581Z" fill="white" fill-opacity="0.4"/>
<path d="M1054.08 76.2896C1053.06 76.5414 1052.42 77.5665 1052.68 78.6195C1052.93 79.6385 1053.95 80.2862 1055.01 80.026C1056.02 79.7742 1056.67 78.7492 1056.41 77.6962C1056.15 76.6432 1055.14 76.0295 1054.08 76.2896Z" fill="white" fill-opacity="0.4"/>
<path d="M1100.8 54.294C1099.78 54.5458 1099.13 55.5709 1099.39 56.6239C1099.64 57.6429 1100.67 58.2906 1101.72 58.0304C1102.74 57.7786 1103.39 56.7536 1103.13 55.7006C1102.88 54.6816 1101.85 54.0339 1100.8 54.294Z" fill="white" fill-opacity="0.4"/>
<path d="M1090.98 56.7197C1089.96 56.9715 1089.32 57.9966 1089.58 59.0496C1089.83 60.0686 1090.85 60.7163 1091.91 60.4561C1092.92 60.2043 1093.57 59.1793 1093.31 58.1263C1093.06 57.1073 1092 56.4679 1090.98 56.7197Z" fill="white" fill-opacity="0.4"/>
<path d="M1081.17 59.1455C1080.15 59.3973 1079.5 60.4223 1079.76 61.4753C1080.01 62.4943 1081.04 63.1421 1082.09 62.8819C1083.11 62.6301 1083.76 61.605 1083.5 60.552C1083.21 59.5414 1082.18 58.8937 1081.17 59.1455Z" fill="white" fill-opacity="0.4"/>
<path d="M1071.32 61.5794C1070.3 61.8312 1069.65 62.8562 1069.91 63.9092C1070.16 64.9282 1071.19 65.576 1072.24 65.3158C1073.26 65.064 1073.91 64.039 1073.65 62.986C1073.39 61.967 1072.33 61.3276 1071.32 61.5794Z" fill="white" fill-opacity="0.4"/>
<path d="M1061.5 64.0051C1060.48 64.2569 1059.83 65.282 1060.09 66.335C1060.34 67.354 1061.37 68.0017 1062.42 67.7415C1063.47 67.4813 1064.09 66.4647 1063.83 65.4117C1063.54 64.4011 1062.52 63.7533 1061.5 64.0051Z" fill="white" fill-opacity="0.4"/>
<path d="M1051.65 66.4391C1050.63 66.6909 1049.98 67.7159 1050.24 68.7689C1050.49 69.7879 1051.52 70.4356 1052.57 70.1755C1053.59 69.9237 1054.24 68.8986 1053.98 67.8456C1053.73 66.8266 1052.7 66.1789 1051.65 66.4391Z" fill="white" fill-opacity="0.4"/>
<path d="M1099.29 48.1801C1100.32 47.9251 1100.95 46.882 1100.7 45.8502C1100.44 44.8185 1099.4 44.1887 1098.37 44.4437C1097.33 44.6986 1096.7 45.7417 1096.96 46.7735C1097.21 47.8053 1098.26 48.435 1099.29 48.1801Z" fill="white" fill-opacity="0.4"/>
<path d="M1088.56 46.9034C1087.54 47.1551 1086.89 48.1802 1087.15 49.2332C1087.4 50.2522 1088.43 50.8999 1089.48 50.6397C1090.5 50.3879 1091.15 49.3629 1090.89 48.3099C1090.63 47.257 1089.58 46.6516 1088.56 46.9034Z" fill="white" fill-opacity="0.4"/>
<path d="M1079.66 53.0315C1080.69 52.7766 1081.32 51.7335 1081.06 50.7017C1080.81 49.6699 1079.76 49.0402 1078.73 49.2951C1077.7 49.5501 1077.07 50.5932 1077.33 51.6249C1077.58 52.6567 1078.62 53.2865 1079.66 53.0315Z" fill="white" fill-opacity="0.4"/>
<path d="M1068.89 51.763C1067.87 52.0148 1067.22 53.0399 1067.48 54.0929C1067.73 55.1119 1068.76 55.7596 1069.81 55.4994C1070.83 55.2476 1071.48 54.2226 1071.22 53.1696C1070.96 52.1166 1069.91 51.5112 1068.89 51.763Z" fill="white" fill-opacity="0.4"/>
<path d="M1059.99 57.8912C1061.02 57.6362 1061.65 56.5931 1061.39 55.5613C1061.14 54.5296 1060.1 53.8998 1059.06 54.1547C1058.03 54.4097 1057.4 55.4528 1057.66 56.4846C1057.91 57.5164 1058.96 58.1461 1059.99 57.8912Z" fill="white" fill-opacity="0.4"/>
<path d="M1049.22 56.6227C1048.2 56.8745 1047.56 57.8995 1047.82 58.9525C1048.07 59.9715 1049.09 60.6193 1050.15 60.3591C1051.16 60.1073 1051.81 59.0822 1051.55 58.0293C1051.29 56.9763 1050.28 56.3625 1049.22 56.6227Z" fill="white" fill-opacity="0.4"/>
<path d="M1095.95 34.6611C1094.93 34.9129 1094.28 35.9379 1094.54 36.9909C1094.79 38.0099 1095.82 38.6576 1096.87 38.3975C1097.89 38.1457 1098.54 37.1206 1098.28 36.0676C1098.02 35.0147 1097 34.4009 1095.95 34.6611Z" fill="white" fill-opacity="0.4"/>
<path d="M1086.13 37.0868C1085.11 37.3386 1084.46 38.3637 1084.72 39.4166C1084.98 40.4357 1086 41.0834 1087.05 40.8232C1088.07 40.5714 1088.72 39.5464 1088.46 38.4934C1088.2 37.4404 1087.15 36.835 1086.13 37.0868Z" fill="white" fill-opacity="0.4"/>
<path d="M1076.31 39.5125C1075.29 39.7643 1074.65 40.7894 1074.91 41.8423C1075.16 42.8614 1076.18 43.5091 1077.24 43.2489C1078.26 42.9971 1078.9 41.9721 1078.64 40.9191C1078.35 39.8745 1077.33 39.2607 1076.31 39.5125Z" fill="white" fill-opacity="0.4"/>
<path d="M1066.46 41.9465C1065.45 42.1983 1064.8 43.2233 1065.06 44.2763C1065.31 45.2953 1066.33 45.943 1067.39 45.6829C1068.41 45.4311 1069.05 44.406 1068.79 43.353C1068.53 42.3001 1067.48 41.6947 1066.46 41.9465Z" fill="white" fill-opacity="0.4"/>
<path d="M1056.65 44.3722C1055.63 44.624 1054.98 45.649 1055.24 46.702C1055.49 47.721 1056.52 48.3687 1057.57 48.1086C1058.62 47.8484 1059.24 46.8317 1058.98 45.7788C1058.68 44.7342 1057.67 44.1204 1056.65 44.3722Z" fill="white" fill-opacity="0.4"/>
<path d="M1046.8 46.8061C1045.78 47.0579 1045.13 48.083 1045.39 49.1359C1045.64 50.155 1046.67 50.8027 1047.72 50.5425C1048.74 50.2907 1049.39 49.2657 1049.13 48.2127C1048.87 47.1597 1047.85 46.5459 1046.8 46.8061Z" fill="white" fill-opacity="0.4"/>
<path d="M1103.36 22.3765C1102.35 22.6283 1101.7 23.6534 1101.96 24.7064C1102.21 25.7254 1103.24 26.3731 1104.29 26.113C1105.31 25.8612 1105.95 24.8361 1105.69 23.7831C1105.41 22.7725 1104.38 22.1247 1103.36 22.3765Z" fill="white" fill-opacity="0.4"/>
<path d="M1093.51 24.8105C1092.5 25.0623 1091.85 26.0873 1092.11 27.1403C1092.36 28.1593 1093.38 28.8071 1094.44 28.5469C1095.46 28.2951 1096.1 27.27 1095.84 26.2171C1095.59 25.198 1094.57 24.5503 1093.51 24.8105Z" fill="white" fill-opacity="0.4"/>
<path d="M1083.7 27.2362C1082.68 27.488 1082.03 28.5131 1082.29 29.5661C1082.54 30.5851 1083.57 31.2328 1084.62 30.9726C1085.64 30.7208 1086.29 29.6958 1086.03 28.6428C1085.78 27.6238 1084.72 26.9844 1083.7 27.2362Z" fill="white" fill-opacity="0.4"/>
<path d="M1073.88 29.6619C1072.86 29.9137 1072.21 30.9388 1072.47 31.9918C1072.73 33.0108 1073.75 33.6585 1074.8 33.3984C1075.82 33.1466 1076.47 32.1215 1076.21 31.0685C1075.92 30.0579 1074.9 29.4101 1073.88 29.6619Z" fill="white" fill-opacity="0.4"/>
<path d="M1064.03 32.0959C1063.01 32.3477 1062.36 33.3727 1062.62 34.4257C1062.88 35.4447 1063.9 36.0925 1064.95 35.8323C1065.97 35.5805 1066.62 34.5554 1066.36 33.5025C1066.11 32.4834 1065.05 31.8441 1064.03 32.0959Z" fill="white" fill-opacity="0.4"/>
<path d="M1054.21 34.5216C1053.19 34.7734 1052.55 35.7984 1052.81 36.8514C1053.06 37.8704 1054.08 38.5182 1055.14 38.258C1056.19 37.9978 1056.8 36.9811 1056.54 35.9282C1056.26 34.9175 1055.23 34.2698 1054.21 34.5216Z" fill="white" fill-opacity="0.4"/>
<path d="M1044.36 36.9555C1043.34 37.2073 1042.7 38.2324 1042.96 39.2854C1043.21 40.3044 1044.23 40.9521 1045.29 40.6919C1046.31 40.4402 1046.95 39.4151 1046.69 38.3621C1046.44 37.3431 1045.42 36.6953 1044.36 36.9555Z" fill="white" fill-opacity="0.4"/>
<path d="M1100.94 12.5601C1099.92 12.8119 1099.27 13.837 1099.53 14.89C1099.78 15.909 1100.81 16.5567 1101.86 16.2965C1102.88 16.0447 1103.53 15.0197 1103.27 13.9667C1102.97 12.9221 1101.96 12.3083 1100.94 12.5601Z" fill="white" fill-opacity="0.4"/>
<path d="M1091.09 14.9941C1090.07 15.2459 1089.42 16.2709 1089.68 17.3239C1089.93 18.3429 1090.96 18.9907 1092.01 18.7305C1093.03 18.4787 1093.68 17.4537 1093.42 16.4007C1093.16 15.3477 1092.14 14.7339 1091.09 14.9941Z" fill="white" fill-opacity="0.4"/>
<path d="M1081.27 17.4198C1080.25 17.6716 1079.6 18.6967 1079.86 19.7497C1080.12 20.7687 1081.14 21.4164 1082.19 21.1562C1083.21 20.9044 1083.86 19.8794 1083.6 18.8264C1083.34 17.7734 1082.29 17.168 1081.27 17.4198Z" fill="white" fill-opacity="0.4"/>
<path d="M1071.45 19.8456C1070.44 20.0974 1069.79 21.1224 1070.05 22.1754C1070.3 23.1944 1071.32 23.8422 1072.38 23.582C1073.4 23.3302 1074.04 22.3051 1073.78 21.2521C1073.49 20.2075 1072.47 19.5938 1071.45 19.8456Z" fill="white" fill-opacity="0.4"/>
<path d="M1061.6 22.2795C1060.59 22.5313 1059.94 23.5563 1060.2 24.6093C1060.45 25.6283 1061.47 26.2761 1062.53 26.0159C1063.55 25.7641 1064.19 24.7391 1063.93 23.6861C1063.67 22.6331 1062.62 22.0277 1061.6 22.2795Z" fill="white" fill-opacity="0.4"/>
<path d="M1051.79 24.7052C1050.77 24.957 1050.12 25.9821 1050.38 27.035C1050.63 28.0541 1051.66 28.7018 1052.71 28.4416C1053.76 28.1814 1054.38 27.1648 1054.12 26.1118C1053.82 25.0672 1052.81 24.4534 1051.79 24.7052Z" fill="white" fill-opacity="0.4"/>
<path d="M1041.94 27.1392C1040.92 27.391 1040.27 28.416 1040.53 29.469C1040.78 30.488 1041.81 31.1357 1042.86 30.8756C1043.88 30.6238 1044.53 29.5987 1044.27 28.5457C1044.01 27.4927 1042.99 26.879 1041.94 27.1392Z" fill="white" fill-opacity="0.4"/>
<path d="M1098.5 2.7096C1097.49 2.96139 1096.84 3.98645 1097.1 5.03943C1097.35 6.05845 1098.38 6.70618 1099.43 6.44599C1100.45 6.19419 1101.09 5.16916 1100.83 4.11618C1100.55 3.10556 1099.52 2.4578 1098.5 2.7096Z" fill="white" fill-opacity="0.4"/>
<path d="M1088.65 5.14352C1087.64 5.39531 1086.99 6.42034 1087.25 7.47333C1087.5 8.49235 1088.52 9.1401 1089.58 8.87991C1090.6 8.62812 1091.24 7.60306 1090.98 6.55008C1090.73 5.53106 1089.71 4.88333 1088.65 5.14352Z" fill="white" fill-opacity="0.4"/>
<path d="M1078.84 7.56925C1077.82 7.82104 1077.17 8.8461 1077.43 9.89908C1077.68 10.9181 1078.71 11.5658 1079.76 11.3056C1080.78 11.0538 1081.43 10.0288 1081.17 8.97583C1080.92 7.95681 1079.86 7.31745 1078.84 7.56925Z" fill="white" fill-opacity="0.4"/>
<path d="M1069.02 9.99498C1068 10.2468 1067.35 11.2718 1067.61 12.3248C1067.87 13.3438 1068.89 13.9916 1069.94 13.7314C1070.96 13.4796 1071.61 12.4545 1071.35 11.4015C1071.06 10.3909 1070.04 9.74318 1069.02 9.99498Z" fill="white" fill-opacity="0.4"/>
<path d="M1059.17 12.4289C1058.15 12.6807 1057.5 13.7057 1057.76 14.7587C1058.02 15.7777 1059.04 16.4255 1060.09 16.1653C1061.11 15.9135 1061.76 14.8885 1061.5 13.8355C1061.25 12.8165 1060.19 12.1771 1059.17 12.4289Z" fill="white" fill-opacity="0.4"/>
<path d="M1049.35 14.8546C1048.33 15.1064 1047.69 16.1315 1047.95 17.1844C1048.2 18.2035 1049.22 18.8512 1050.28 18.591C1051.33 18.3308 1051.94 17.3142 1051.68 16.2612C1051.4 15.2506 1050.37 14.6028 1049.35 14.8546Z" fill="white" fill-opacity="0.4"/>
<path d="M1039.5 17.2886C1038.48 17.5404 1037.84 18.5654 1038.1 19.6184C1038.35 20.6374 1039.37 21.2851 1040.43 21.025C1041.45 20.7732 1042.09 19.7481 1041.83 18.6951C1041.58 17.6761 1040.56 17.0284 1039.5 17.2886Z" fill="white" fill-opacity="0.4"/>
<path d="M1042.26 688L1068.64 794.793L1064.02 802.46L1037.63 695.667L1042.26 688Z" fill="white"/>
<path d="M1031.03 706.596L1057.42 813.389L1052.79 821.057L1026.4 714.264L1031.03 706.596Z" fill="white"/>
<path d="M1019.78 725.235L1046.17 832.028L1041.54 839.695L1015.15 732.902L1019.78 725.235Z" fill="white"/>
<path d="M1008.52 743.839L1034.9 850.632L1030.28 858.3L1003.89 751.507L1008.52 743.839Z" fill="white"/>
<path d="M997.324 762.427L1023.71 869.22L1019.08 876.887L992.695 770.094L997.324 762.427Z" fill="white"/>
<path d="M986.07 781.066L1012.46 887.859L1007.83 895.526L981.442 788.733L986.07 781.066Z" fill="white"/>
<path d="M974.818 799.704L1001.21 906.497L996.577 914.165L970.189 807.372L974.818 799.704Z" fill="white"/>
<path d="M963.592 818.3L989.98 925.093L985.351 932.761L958.963 825.968L963.592 818.3Z" fill="white"/>
<path d="M952.365 836.897L978.753 943.69L974.124 951.357L947.736 844.564L952.365 836.897Z" fill="white"/>
<path d="M941.112 855.535L967.5 962.328L962.872 969.995L936.484 863.202L941.112 855.535Z" fill="white"/>
<path d="M929.85 874.14L956.238 980.933L951.609 988.6L925.221 881.807L929.85 874.14Z" fill="white"/>
<path d="M918.657 892.728L945.045 999.521L940.416 1007.19L914.028 900.395L918.657 892.728Z" fill="white"/>
<path d="M825.323 5.08475L850.964 108.855L846.463 116.31L820.814 12.5062L825.323 5.08475Z" fill="#FDFEFF" fill-opacity="0.2"/>
<path d="M814.427 23.1305L840.068 126.9L835.567 134.356L809.926 30.5859L814.427 23.1305Z" fill="#FDFEFF" fill-opacity="0.2"/>
<path d="M803.507 41.2185L829.157 145.022L824.647 152.444L799.006 48.6739L803.507 41.2185Z" fill="#FDFEFF" fill-opacity="0.2"/>
<path d="M792.563 59.3484L818.204 163.118L813.703 170.574L788.053 66.7699L792.563 59.3484Z" fill="#FDFEFF" fill-opacity="0.2"/>
<path d="M781.667 77.3942L807.308 181.164L802.807 188.62L777.166 84.8496L781.667 77.3942Z" fill="#FDFEFF" fill-opacity="0.2"/>
<path d="M770.746 95.4821L796.396 199.286L791.886 206.707L766.245 102.938L770.746 95.4821Z" fill="#FDFEFF" fill-opacity="0.2"/>
<path d="M759.802 113.612L785.443 217.382L780.942 224.837L755.293 121.034L759.802 113.612Z" fill="#FDFEFF" fill-opacity="0.2"/>
<path d="M748.881 131.7L774.522 235.47L770.021 242.925L744.38 139.156L748.881 131.7Z" fill="#FDFEFF" fill-opacity="0.2"/>
<path d="M737.986 149.746L763.635 253.55L759.134 261.005L733.485 157.201L737.986 149.746Z" fill="#FDFEFF" fill-opacity="0.2"/>
<path d="M727.041 167.876L752.682 271.646L748.181 279.101L722.532 175.297L727.041 167.876Z" fill="#FDFEFF" fill-opacity="0.2"/>
<path d="M716.12 185.964L741.761 289.734L737.26 297.189L711.619 193.419L716.12 185.964Z" fill="#FDFEFF" fill-opacity="0.2"/>
<path d="M705.191 204.018L730.841 307.822L726.374 315.269L700.724 211.465L705.191 204.018Z" fill="#FDFEFF" fill-opacity="0.2"/>
<path d="M694.28 222.14L719.921 325.909L715.42 333.365L689.779 229.595L694.28 222.14Z" fill="#FDFEFF" fill-opacity="0.2"/>
<path d="M1351.09 0.8467L1300.04 -205.742L1144.5 51.8938L1351.09 0.8467Z" fill="#FDFEFF" fill-opacity="0.2"/>
<path d="M1211.39 32.4826C1212.12 33.2738 1212.88 34.0227 1213.62 34.8139L1218.31 33.6556C1217 32.3198 1215.7 30.9839 1214.43 29.6396C1199.15 13.3046 1191.9 -8.18507 1193.83 -29.8192L1189.35 -22.4062C1189.49 -2.32779 1197.13 17.2281 1211.39 32.4826ZM1241.35 25.0799C1242.08 25.8711 1242.84 26.6199 1243.58 27.4111L1248.27 26.2529C1246.96 24.917 1245.66 23.5811 1244.39 22.2369C1225.93 2.50717 1219.12 -24.7518 1226.18 -50.7168C1228.1 -57.6786 1230.36 -64.7583 1232.56 -71.575C1236.97 -85.0983 1241.2 -98.1807 1242.69 -110.804L1236.73 -100.934C1234.72 -91.8593 1231.7 -82.499 1228.6 -72.8673C1226.37 -66.0082 1224.09 -58.8861 1222.17 -51.814C1214.72 -24.4923 1221.89 4.26122 1241.35 25.0799ZM1256.33 21.3785C1257.06 22.1697 1257.82 22.9185 1258.56 23.7098L1263.25 22.5515C1261.94 21.2157 1260.64 19.8798 1259.37 18.5355C1240.91 -1.1942 1234.1 -28.4531 1241.16 -54.4182C1243.08 -61.38 1245.34 -68.4597 1247.54 -75.2764C1254.36 -96.2778 1260.79 -116.177 1257.25 -134.873L1253.83 -129.197C1255.3 -112.874 1249.63 -95.1451 1243.58 -76.5687C1241.35 -69.7095 1239.07 -62.5875 1237.15 -55.5154C1229.7 -28.1936 1236.87 0.559841 1256.33 21.3785ZM1226.37 28.7812C1227.1 29.5724 1227.86 30.3213 1228.6 31.1125L1233.29 29.9543C1231.98 28.6184 1230.68 27.2825 1229.41 25.9383C1210.95 6.20855 1204.14 -21.0504 1211.21 -47.0154C1213.09 -53.9688 1215.38 -61.0229 1217.58 -67.8737C1217.89 -68.8148 1218.19 -69.7899 1218.5 -70.731L1209.27 -55.4389C1208.54 -52.9884 1207.81 -50.5379 1207.15 -48.1042C1199.74 -20.7909 1206.91 7.96257 1226.37 28.7812ZM1346.2 -0.829783C1346.94 -0.0385628 1347.7 0.710308 1348.44 1.50153L1351.09 0.846864L1350.21 -2.68573C1349.87 -3.03458 1349.58 -3.35784 1349.24 -3.70671C1330.78 -23.4364 1323.97 -50.6953 1331.03 -76.6604C1331.19 -77.203 1331.33 -77.7797 1331.52 -78.3308L1329.53 -86.381C1328.65 -83.5321 1327.81 -80.6576 1327.01 -77.7576C1319.57 -50.4019 1326.75 -21.6484 1346.2 -0.829783ZM1331.22 2.87159C1331.96 3.66281 1332.72 4.41168 1333.46 5.2029L1338.14 4.04465C1336.84 2.70877 1335.54 1.37292 1334.27 0.0286489C1315.81 -19.7011 1309 -46.96 1316.06 -72.925C1317.95 -79.8784 1320.24 -86.9326 1322.44 -93.7833C1323.44 -96.878 1324.45 -99.9387 1325.39 -102.983L1323.44 -110.897C1321.91 -105.691 1320.23 -100.408 1318.49 -95.0416C1316.26 -88.1824 1313.98 -81.0604 1312.05 -73.9882C1304.59 -46.7005 1311.77 -17.947 1331.22 2.87159ZM1196.41 36.184C1197.14 36.9752 1197.9 37.724 1198.64 38.5153L1203.33 37.357C1202.03 36.0211 1200.72 34.6853 1199.45 33.341C1188.88 22.0426 1182.16 8.27676 1179.64 -6.30921L1176.46 -1.05654C1179.66 12.6063 1186.36 25.4386 1196.41 36.184ZM1316.24 6.57297C1316.98 7.36419 1317.74 8.11306 1318.48 8.90428L1323.16 7.74603C1321.86 6.41015 1320.56 5.07427 1319.29 3.73C1300.83 -15.9997 1294.02 -43.2586 1301.08 -69.2236C1303 -76.1854 1305.25 -83.2652 1307.46 -90.0819C1312.29 -104.97 1316.92 -119.341 1317.96 -133.078L1308.73 -170.408C1304.1 -177.803 1298.03 -184.702 1291.41 -191.5L1289.19 -187.815C1299.83 -176.822 1308.72 -165.647 1312.27 -152.577C1317.28 -133.92 1310.63 -113.283 1303.53 -91.4165C1301.29 -84.5574 1299.02 -77.4353 1297.09 -70.3632C1289.61 -42.9991 1296.79 -14.2457 1316.24 6.57297ZM1153.7 49.6194L1158.39 48.4611C1157.09 47.1253 1155.78 45.7894 1154.51 44.4451C1153.39 43.2455 1152.29 42.0035 1151.25 40.7108L1149 44.4385C1149.81 45.3912 1150.62 46.3438 1151.5 47.2797C1152.2 48.0453 1152.97 48.8282 1153.7 49.6194ZM1166.45 43.5867C1167.18 44.3779 1167.95 45.1268 1168.68 45.918L1173.37 44.7598C1172.07 43.4239 1170.76 42.088 1169.49 40.7437C1165.58 36.5579 1162.22 32.0171 1159.38 27.2402L1156.93 31.3068C1159.68 35.5998 1162.86 39.7157 1166.45 43.5867ZM1296.22 -199.464C1298.64 -197.107 1301.03 -194.741 1303.34 -192.393L1301.4 -200.239C1300.41 -201.184 1299.44 -202.171 1298.44 -203.15L1296.22 -199.464ZM1286.28 13.9757C1287.02 14.7669 1287.78 15.5158 1288.52 16.307L1293.21 15.1488C1291.9 13.8129 1290.6 12.477 1289.33 11.1328C1270.87 -8.59696 1264.06 -35.8559 1271.12 -61.8209C1273.04 -68.7827 1275.29 -75.8624 1277.5 -82.6792C1284.67 -104.74 1291.4 -125.615 1286.61 -145.154C1286.52 -145.528 1286.42 -145.901 1286.34 -146.241C1284.35 -153.57 1280.86 -160.241 1276.41 -166.601L1274.03 -162.661C1277.74 -157.127 1280.64 -151.357 1282.32 -145.174C1287.35 -126.559 1280.64 -105.872 1273.57 -84.0138C1271.34 -77.1546 1269.06 -70.0326 1267.13 -62.9605C1259.65 -35.5964 1266.83 -6.84291 1286.28 13.9757ZM1271.3 17.6771C1272.04 18.4683 1272.8 19.2172 1273.54 20.0084L1278.23 18.8502C1276.92 17.5143 1275.62 16.1784 1274.35 14.8341C1255.89 -4.89558 1249.08 -32.1545 1256.14 -58.1195C1258.06 -65.0813 1260.32 -72.161 1262.52 -78.9778C1269.69 -101.039 1276.42 -121.913 1271.63 -141.453C1271.54 -141.826 1271.45 -142.2 1271.36 -142.54C1270.46 -145.886 1269.2 -149.105 1267.71 -152.198L1265.1 -147.878C1265.98 -145.788 1266.73 -143.63 1267.34 -141.439C1272.34 -122.815 1265.67 -102.136 1258.6 -80.2784C1256.36 -73.4193 1254.09 -66.2972 1252.16 -59.2251C1244.68 -31.895 1251.85 -3.14154 1271.3 17.6771ZM1181.43 39.8853C1182.16 40.6766 1182.93 41.4254 1183.66 42.2166L1188.35 41.0584C1187.05 39.7225 1185.74 38.3866 1184.47 37.0424C1177.48 29.5809 1172.19 21.0125 1168.66 11.8634L1166.01 16.2689C1169.66 24.8074 1174.81 32.7983 1181.43 39.8853ZM1301.26 10.2743C1302 11.0656 1302.76 11.8144 1303.5 12.6057L1308.19 11.4474C1306.88 10.1115 1305.58 8.77565 1304.31 7.43138C1285.85 -12.2983 1279.04 -39.5572 1286.1 -65.5223C1287.99 -72.4757 1290.27 -79.5638 1292.48 -86.3806C1299.65 -108.442 1306.38 -129.316 1301.59 -148.856C1301.5 -149.229 1301.4 -149.603 1301.32 -149.942C1298.36 -160.889 1292.06 -170.36 1284.16 -179.436L1281.88 -175.666C1289 -167.296 1294.64 -158.6 1297.27 -148.833C1302.23 -130.201 1295.59 -109.531 1288.52 -87.6728C1286.29 -80.8136 1284.01 -73.6916 1282.08 -66.6195C1274.63 -39.2978 1281.81 -10.5443 1301.26 10.2743Z" fill="white" fill-opacity="0.9"/>
<path d="M1091.52 856.737C1091.07 856.846 1090.59 856.786 1090.2 856.522C1089.35 856.01 1089.09 854.957 1089.61 854.11L1329.16 457.32C1329.67 456.473 1330.72 456.213 1331.57 456.724C1332.42 457.236 1332.68 458.289 1332.17 459.136L1092.61 855.926C1092.32 856.358 1091.96 856.628 1091.52 856.737Z" fill="#FDFEFF" fill-opacity="0.2"/>
<path d="M610.366 319.822C609.924 319.932 609.44 319.871 609.051 319.607C608.204 319.095 607.943 318.042 608.455 317.195L820.899 -34.6927C821.41 -35.5399 822.463 -35.8001 823.311 -35.2886C824.158 -34.7771 824.418 -33.7241 823.907 -32.8769L611.462 319.011C611.173 319.443 610.807 319.713 610.366 319.822Z" fill="#FDFEFF" fill-opacity="0.2"/>
<path d="M828.793 703.066C828.351 703.175 827.868 703.114 827.478 702.85C826.631 702.338 826.371 701.285 826.882 700.438L849.745 662.568C850.257 661.721 851.31 661.461 852.157 661.972C853.004 662.484 853.264 663.537 852.753 664.384L829.89 702.254C829.6 702.686 829.234 702.957 828.793 703.066Z" fill="#FDFEFF" fill-opacity="0.2"/>
<path d="M943.77 423.773C943.328 423.882 942.845 423.821 942.455 423.557C941.608 423.046 941.348 421.993 941.859 421.145L1016.48 297.538C1017 296.691 1018.05 296.43 1018.9 296.942C1019.74 297.453 1020 298.506 1019.49 299.354L944.867 422.961C944.611 423.385 944.211 423.664 943.77 423.773Z" fill="#FDFEFF" fill-opacity="0.2"/>
<path d="M933.915 306.731C933.474 306.84 932.99 306.78 932.601 306.515C931.754 306.004 931.493 304.951 932.005 304.104L1023.07 153.258C1023.59 152.411 1024.64 152.151 1025.49 152.663C1026.33 153.174 1026.59 154.227 1026.08 155.074L935.012 305.92C934.723 306.352 934.357 306.622 933.915 306.731Z" fill="#FDFEFF" fill-opacity="0.2"/>
<path d="M876.795 830.972C876.353 831.081 875.87 831.02 875.48 830.756C874.633 830.245 874.373 829.191 874.884 828.344L1145.84 379.536C1146.35 378.689 1147.41 378.429 1148.25 378.94C1149.1 379.452 1149.36 380.505 1148.85 381.352L877.858 830.169C877.602 830.592 877.237 830.863 876.795 830.972Z" fill="#FDFEFF" fill-opacity="0.2"/>
<path d="M968.309 33.8709L972.273 27.305L962.999 -10.2288L959.035 -3.66291L968.309 33.8709ZM939.385 81.7805L943.349 75.2146L934.074 37.6808L930.11 44.2467L939.385 81.7805ZM987.6 1.96513L991.564 -4.60071L982.281 -42.1685L978.318 -35.6026L987.6 1.96513ZM929.752 97.7843L933.716 91.2185L924.433 53.6507L920.469 60.2166L929.752 97.7843ZM949.035 65.8446L952.999 59.2787L943.716 21.711L939.752 28.2768L949.035 65.8446ZM977.959 17.935L981.923 11.3691L972.64 -26.1986L968.676 -19.6328L977.959 17.935ZM958.676 49.8747L962.64 43.3089L953.357 5.7411L949.393 12.3069L958.676 49.8747Z" fill="white"/>
<path d="M461.981 932.068L466.973 923.841L455.36 876.844L450.369 885.072L461.981 932.068ZM425.594 992.048L430.586 983.821L418.973 936.824L413.982 945.052L425.594 992.048ZM486.24 892.081L491.231 883.854L479.618 836.858L474.627 845.085L486.24 892.081ZM413.44 1012.08L418.431 1003.86L406.818 956.861L401.827 965.088L413.44 1012.08ZM437.698 972.098L442.689 963.87L431.076 916.874L426.085 925.101L437.698 972.098ZM474.085 912.117L479.076 903.89L467.463 856.894L462.472 865.121L474.085 912.117ZM449.827 952.104L454.818 943.877L443.205 896.88L438.214 905.108L449.827 952.104Z" fill="#FDFEFF" fill-opacity="0.2"/>
<path d="M397.542 726.911C397.1 727.02 396.616 726.959 396.227 726.695C395.38 726.184 395.119 725.131 395.631 724.284L650.068 302.84C650.579 301.993 651.632 301.733 652.479 302.244C653.327 302.756 653.587 303.809 653.075 304.656L398.638 726.099C398.383 726.523 397.983 726.802 397.542 726.911Z" fill="#FDFEFF" fill-opacity="0.2"/>
<path d="M965.056 143.663C964.614 143.773 964.131 143.712 963.741 143.448C962.894 142.936 962.633 141.883 963.145 141.036L1189.42 -233.769C1189.94 -234.616 1190.99 -234.876 1191.84 -234.365C1192.68 -233.853 1192.94 -232.8 1192.43 -231.953L966.153 142.852C965.897 143.275 965.497 143.554 965.056 143.663Z" fill="#FDFEFF" fill-opacity="0.2"/>
<path d="M568.039 533.013C567.597 533.122 567.114 533.061 566.724 532.797C565.877 532.285 565.617 531.232 566.128 530.385L629.22 425.882C629.731 425.035 630.784 424.775 631.631 425.286C632.479 425.798 632.739 426.851 632.227 427.698L569.136 532.201C568.88 532.625 568.481 532.903 568.039 533.013Z" fill="#FDFEFF" fill-opacity="0.2"/>
<path d="M1019.19 274.344C1018.75 274.453 1018.26 274.392 1017.87 274.128C1017.03 273.616 1016.77 272.563 1017.28 271.716L1043.54 228.212C1044.05 227.365 1045.11 227.105 1045.95 227.616C1046.8 228.128 1047.06 229.181 1046.55 230.028L1020.29 273.532C1020 273.964 1019.63 274.235 1019.19 274.344Z" fill="#FDFEFF" fill-opacity="0.2"/>
<path d="M706.335 521.51C705.894 521.619 705.41 521.558 705.02 521.294C704.173 520.783 703.913 519.73 704.424 518.883L740.509 459.112C741.021 458.265 742.074 458.005 742.921 458.516C743.768 459.028 744.029 460.081 743.517 460.928L707.432 520.698C707.176 521.122 706.777 521.401 706.335 521.51Z" fill="#FDFEFF" fill-opacity="0.2"/>
</svg>
