<?xml version="1.0" encoding="utf-8"?>
<!-- Generator: Adobe Illustrator 24.0.1, SVG Export Plug-In . SVG Version: 6.00 Build 0)  -->
<svg version="1.1" xmlns="http://www.w3.org/2000/svg" xmlns:xlink="http://www.w3.org/1999/xlink" x="0px" y="0px"
	 viewBox="0 0 193.2 52" style="enable-background:new 0 0 193.2 52;" xml:space="preserve">
<style type="text/css">
	.st0{fill:none;stroke:#FFFFFF;stroke-width:9;stroke-miterlimit:10;}
	.st1{fill:#FAFAFA;}
	.st2{fill:url(#SVGID_1_);}
	.st3{fill:#3C3C3B;}
	.st4{fill:#3C3C3B;stroke:#000000;stroke-width:0.5;}
	.st5{fill:url(#SVGID_2_);}
</style>
<g id="Camada_3">
</g>
<g id="Camada_2">
</g>
<g id="Camada_1">
	<g>
		<path class="st1" d="M71,38.7h-2.6v-9.1l-9.5-13.8H62l7.7,11.5l7.8-11.5h3L71,29.6V38.7z"/>
		<path class="st1" d="M95.2,33.7c-0.4,1.1-1.1,2-1.8,2.8c-0.8,0.8-1.7,1.4-2.8,1.9c-1.1,0.5-2.3,0.7-3.5,0.7
			c-1.3,0-2.4-0.2-3.5-0.7c-1.1-0.5-2-1.1-2.8-1.9c-0.8-0.8-1.4-1.7-1.8-2.8c-0.4-1.1-0.7-2.2-0.7-3.4c0-1.2,0.2-2.3,0.7-3.4
			c0.4-1.1,1-2,1.8-2.8c0.8-0.8,1.7-1.4,2.8-1.9c1.1-0.5,2.3-0.7,3.6-0.7c1.3,0,2.4,0.2,3.5,0.7c1.1,0.5,2,1.1,2.8,1.9
			c0.8,0.8,1.4,1.7,1.8,2.8s0.7,2.2,0.7,3.4C95.9,31.5,95.7,32.6,95.2,33.7z M92.8,27.7c-0.3-0.8-0.8-1.5-1.3-2.1
			c-0.6-0.6-1.2-1.1-2-1.4c-0.8-0.3-1.6-0.5-2.5-0.5c-0.9,0-1.8,0.2-2.5,0.5c-0.8,0.3-1.4,0.8-1.9,1.4c-0.5,0.6-1,1.3-1.3,2.1
			c-0.3,0.8-0.5,1.6-0.5,2.6c0,0.9,0.2,1.8,0.5,2.6c0.3,0.8,0.8,1.5,1.3,2.1c0.6,0.6,1.2,1.1,2,1.4c0.8,0.3,1.6,0.5,2.5,0.5
			c0.9,0,1.8-0.2,2.5-0.5c0.8-0.3,1.4-0.8,2-1.4c0.5-0.6,1-1.3,1.3-2.1c0.3-0.8,0.5-1.6,0.5-2.6C93.3,29.4,93.1,28.5,92.8,27.7z"/>
		<path class="st1" d="M111.1,21.8h2.5v16.9h-2.5v-2.9c-0.6,0.9-1.3,1.7-2.2,2.3s-2.1,1-3.6,1c-1,0-1.9-0.2-2.7-0.5
			c-0.8-0.3-1.5-0.8-2-1.4c-0.6-0.6-1-1.3-1.3-2.1c-0.3-0.8-0.4-1.7-0.4-2.7V21.8h2.5v9.9c0,1.6,0.4,2.8,1.2,3.7
			c0.8,0.9,2,1.4,3.5,1.4c0.7,0,1.4-0.1,2-0.4c0.6-0.3,1.2-0.6,1.6-1.1c0.4-0.5,0.8-1,1.1-1.7c0.3-0.7,0.4-1.4,0.4-2.2V21.8z"/>
		<path class="st1" d="M136.2,36.8c-0.6,0.5-1.3,0.9-2.1,1.3c-0.7,0.4-1.6,0.6-2.4,0.8c-0.9,0.2-1.9,0.3-2.9,0.3
			c-1.7,0-3.2-0.3-4.6-0.9c-1.4-0.6-2.6-1.4-3.7-2.5c-1-1.1-1.8-2.3-2.4-3.7c-0.6-1.4-0.9-3-0.9-4.6c0-1.6,0.3-3.2,0.9-4.6
			c0.6-1.4,1.4-2.7,2.4-3.8c1-1.1,2.3-1.9,3.7-2.6c1.4-0.6,3-0.9,4.8-0.9c1,0,2,0.1,2.9,0.3c0.9,0.2,1.7,0.4,2.4,0.7s1.4,0.7,2,1.1
			c0.6,0.4,1.2,0.9,1.7,1.4l-2.6,3c-0.9-0.9-1.9-1.5-2.9-2.1c-1-0.5-2.2-0.8-3.5-0.8c-1.1,0-2.1,0.2-3,0.6c-0.9,0.4-1.7,1-2.4,1.7
			c-0.7,0.7-1.2,1.6-1.6,2.6c-0.4,1-0.6,2-0.6,3.2c0,1.1,0.2,2.2,0.6,3.2c0.4,1,0.9,1.9,1.6,2.6c0.7,0.7,1.5,1.3,2.4,1.8
			c0.9,0.4,1.9,0.6,3,0.6c1.4,0,2.6-0.3,3.6-0.8c1-0.5,2-1.3,3-2.2l2.6,2.6C137.4,35.7,136.8,36.3,136.2,36.8z"/>
		<path class="st1" d="M151.1,38.7v-2.1c-0.6,0.7-1.3,1.3-2.3,1.8c-0.9,0.5-2,0.7-3.3,0.7c-0.8,0-1.6-0.1-2.4-0.3
			c-0.7-0.2-1.4-0.6-1.9-1c-0.6-0.4-1-1-1.3-1.7c-0.3-0.7-0.5-1.4-0.5-2.3v-0.1c0-0.9,0.2-1.8,0.5-2.5c0.3-0.7,0.8-1.3,1.5-1.7
			c0.6-0.5,1.4-0.8,2.2-1c0.9-0.2,1.8-0.3,2.8-0.3c1,0,1.9,0.1,2.7,0.2c0.7,0.1,1.4,0.3,2.1,0.5v-0.4c0-1.2-0.4-2.1-1.1-2.7
			c-0.7-0.6-1.8-0.9-3.2-0.9c-1,0-1.9,0.1-2.6,0.3c-0.8,0.2-1.5,0.5-2.3,0.8l-1.1-3.2c1-0.4,1.9-0.8,2.9-1c1-0.3,2.2-0.4,3.6-0.4
			c2.6,0,4.5,0.6,5.7,1.9c1.2,1.3,1.9,3.1,1.9,5.4v10.2H151.1z M151.2,31.4c-0.5-0.2-1.1-0.4-1.8-0.5c-0.7-0.1-1.4-0.2-2.2-0.2
			c-1.2,0-2.2,0.2-2.9,0.7c-0.7,0.5-1,1.2-1,2.1v0.1c0,0.8,0.3,1.5,1,1.9c0.6,0.4,1.4,0.7,2.4,0.7c0.7,0,1.3-0.1,1.8-0.3
			c0.6-0.2,1-0.4,1.5-0.7c0.4-0.3,0.7-0.7,1-1.1c0.2-0.4,0.3-0.9,0.3-1.5V31.4z"/>
		<path class="st1" d="M162.4,38.7h-4V21.5h4v3.9c0.5-1.3,1.3-2.4,2.3-3.1c1-0.8,2.3-1.1,3.8-1.1v4.2h-0.2c-0.9,0-1.7,0.1-2.4,0.4
			c-0.7,0.3-1.3,0.7-1.9,1.3c-0.5,0.6-0.9,1.3-1.2,2.1c-0.3,0.9-0.4,1.9-0.4,3V38.7z"/>
		<path class="st1" d="M183.1,38.7v-2.9c-0.6,0.9-1.4,1.7-2.4,2.3c-0.9,0.6-2.1,0.9-3.5,0.9c-1,0-2-0.2-3-0.6c-1-0.4-1.8-1-2.5-1.8
			c-0.7-0.8-1.3-1.7-1.8-2.8c-0.5-1.1-0.7-2.4-0.7-3.8c0-1.4,0.2-2.7,0.7-3.8c0.4-1.1,1-2.1,1.8-2.8c0.7-0.8,1.6-1.4,2.6-1.8
			c1-0.4,2-0.6,3-0.6c1.4,0,2.6,0.3,3.5,0.9c0.9,0.6,1.7,1.3,2.4,2.1v-9.3h4v23.9H183.1z M182.8,27.8c-0.3-0.7-0.6-1.3-1.1-1.8
			c-0.5-0.5-1-0.9-1.6-1.1c-0.6-0.3-1.2-0.4-1.9-0.4c-0.7,0-1.3,0.1-1.9,0.4c-0.6,0.3-1.1,0.6-1.6,1.1s-0.8,1.1-1.1,1.8
			c-0.3,0.7-0.4,1.5-0.4,2.3c0,0.9,0.1,1.6,0.4,2.3c0.3,0.7,0.6,1.3,1.1,1.8c0.5,0.5,1,0.9,1.6,1.1c0.6,0.3,1.2,0.4,1.9,0.4
			c0.7,0,1.3-0.1,1.9-0.4c0.6-0.3,1.1-0.6,1.6-1.1c0.5-0.5,0.8-1.1,1.1-1.8c0.3-0.7,0.4-1.4,0.4-2.3C183.2,29.2,183,28.5,182.8,27.8
			z"/>
	</g>
	<g>
		<path class="st1" d="M171.3,47.5v-1.3h1.2v1.3H171.3z"/>
		<path class="st1" d="M173.5,47.5v-6.7h1.1v6.7H173.5z"/>
		<path class="st1" d="M175.7,41.9v-1.1h1.2v1.1H175.7z M175.8,47.5v-4.8h1.1v4.8H175.8z"/>
		<path class="st1" d="M179.1,47.5H178v-4.8h1.1v0.8c0.1-0.1,0.2-0.2,0.3-0.3c0.1-0.1,0.2-0.2,0.3-0.3c0.1-0.1,0.3-0.1,0.4-0.2
			c0.1,0,0.3-0.1,0.5-0.1c0.5,0,1,0.2,1.3,0.5c0.3,0.3,0.4,0.8,0.4,1.4v3.1h-1.1v-2.7c0-0.4-0.1-0.7-0.3-0.9
			c-0.2-0.2-0.4-0.3-0.8-0.3c-0.3,0-0.6,0.1-0.8,0.3c-0.2,0.2-0.3,0.5-0.3,0.9V47.5z"/>
		<path class="st1" d="M187.8,47.5h-1.3l-1.5-2.1l-0.7,0.7v1.4h-1.1v-6.7h1.1v4l2-2.1h1.3l-1.9,2L187.8,47.5z"/>
	</g>
	<linearGradient id="SVGID_1_" gradientUnits="userSpaceOnUse" x1="4.1501" y1="26.46" x2="54.6" y2="26.46">
		<stop  offset="0" style="stop-color:#F49F77"/>
		<stop  offset="0.4843" style="stop-color:#ED6CA5"/>
		<stop  offset="1" style="stop-color:#714896"/>
	</linearGradient>
	<path class="st2" d="M54,8.4l-0.3-0.6c-1-2-3.1-3.4-5.3-3.4c-0.7,0-1.4,0-2.2-0.1c-0.8,0-1.5-0.1-2.3-0.1c-0.6,0-1.3,0-2,0.1
		c-2.6,0.3-5.9,1.8-7.3,4.5l0,0c-0.4,0.6-1.4,2.6-4.9,8.7c-5-8.8-5-8.8-5-8.8c-1.4-2.4-4.9-4.4-7.9-4.4h-6.4c-2.4,0-4.6,1.4-5.5,3.7
		L4.6,8.7c-0.7,1.7-0.6,3.6,0.3,5.2l9.7,16.8c1.1,1.8,3,3,5.2,3h1l-4.5,8.2c-0.8,1.4-0.8,3.1,0,4.5c0.8,1.4,2.3,2.2,3.9,2.2h13.4
		c1.7,0,3.3-0.9,4-2.5l12.3-24.8l4-7.7C54.8,12.1,54.8,10.1,54,8.4z M19.8,30.7c-1,0-2-0.6-2.5-1.5L7.6,12.4
		c-0.5-0.8-0.5-1.7-0.2-2.6l0.3-0.6c0.4-1.1,1.5-1.8,2.7-1.8h6.4c1.9,0,4.4,1.3,5.3,2.9c0,0,3,5.2,5.9,10.4
		c-0.4,0.7-0.8,1.5-1.3,2.3l-3.5,6.4c-0.5,0.8-1.4,1.3-2.4,1.3H19.8z M51.2,12.3L34.9,44.8c-0.3,0.5-0.8,0.8-1.3,0.8H20.2
		c-0.8,0-1.2-0.5-1.3-0.7c-0.1-0.2-0.4-0.8,0-1.5L25.7,31c0.1-0.1,0.2-0.2,0.2-0.4c0,0,0.1-0.1,0.2-0.3l1.9-3.5
		c0.2-0.4,0.4-0.8,0.6-1.2c0.2-0.4,0.5-0.8,0.7-1.3l0.4-0.7c0,0,0,0,0,0l1.7-3.1l1.2-2.2l4.2-7.7c0.2-0.3,0.3-0.5,0.3-0.5
		c0.9-1.6,3.2-2.7,5.1-2.9c1.2-0.1,2.5-0.1,3.8,0c0.8,0,1.5,0.1,2.3,0.1c1.1,0,2.1,0.6,2.6,1.6l0.3,0.6
		C51.7,10.5,51.7,11.5,51.2,12.3z"/>
</g>
</svg>
